<svg width="20" height="20" viewBox="0 0 20 20" fill="none" xmlns="http://www.w3.org/2000/svg">
    <path d="M0 5C0 2.23858 2.23858 0 5 0H15C17.7614 0 20 2.23858 20 5V15C20 17.7614 17.7614 20 15 20H5C2.23858 20 0 17.7614 0 15V5Z" fill="url(#paint0_linear_75_235)"/>
    <path d="M10.31 4.375C10.73 4.375 11.06 4.48 11.3 4.69C11.55 4.89 11.675 5.17 11.675 5.53C11.675 5.89 11.55 6.175 11.3 6.385C11.06 6.585 10.73 6.685 10.31 6.685C9.89 6.685 9.555 6.585 9.305 6.385C9.065 6.175 8.945 5.89 8.945 5.53C8.945 5.17 9.065 4.89 9.305 4.69C9.555 4.48 9.89 4.375 10.31 4.375ZM11.48 8.08V14.605C11.48 15.025 11.55 15.31 11.69 15.46C11.84 15.61 12.09 15.685 12.44 15.685V16C12.26 15.99 11.98 15.98 11.6 15.97C11.22 15.95 10.835 15.94 10.445 15.94C10.055 15.94 9.66 15.95 9.26 15.97C8.86 15.98 8.56 15.99 8.36 16V15.685C8.71 15.685 8.955 15.61 9.095 15.46C9.245 15.31 9.32 15.025 9.32 14.605V9.88C9.32 9.43 9.25 9.1 9.11 8.89C8.98 8.67 8.73 8.56 8.36 8.56V8.245C8.68 8.275 8.99 8.29 9.29 8.29C9.71 8.29 10.1 8.275 10.46 8.245C10.83 8.205 11.17 8.15 11.48 8.08Z" fill="black"/>
    <defs>
        <linearGradient id="paint0_linear_75_235" x1="5.45454" y1="1.81818" x2="19.0909" y2="24.0909" gradientUnits="userSpaceOnUse">
            <stop stop-color="#D0A850"/>
            <stop offset="0.497917" stop-color="#F9F4BC"/>
            <stop offset="1" stop-color="#D0A850"/>
        </linearGradient>
    </defs>
</svg>
